<svg width="398" height="258" viewBox="0 0 398 258" fill="none" xmlns="http://www.w3.org/2000/svg">
<path d="M233.222 257.764C224.482 257.764 214.982 257.004 204.722 255.484C194.462 254.344 186.482 252.254 180.782 249.214C179.262 248.454 177.742 247.124 176.222 245.224C174.702 242.944 174.702 240.474 176.222 237.814C177.362 235.534 178.882 231.544 180.782 225.844C182.682 220.144 184.582 214.064 186.482 207.604C188.382 201.144 189.902 195.824 191.042 191.644L203.582 186.514C202.822 187.654 201.492 190.884 199.592 196.204C198.072 201.524 196.932 205.704 196.172 208.744C195.792 209.884 195.602 211.024 195.602 212.164C195.602 213.304 195.602 214.444 195.602 215.584C195.602 226.224 198.072 233.634 203.012 237.814C206.052 240.854 210.422 243.134 216.122 244.654C221.822 246.174 227.712 246.934 233.792 246.934C248.612 246.934 261.722 243.704 273.122 237.244C284.902 230.404 294.782 221.854 302.762 211.594C310.742 200.954 316.442 189.934 319.862 178.534C322.902 169.414 324.422 160.864 324.422 152.884C324.422 143.384 321.952 135.594 317.012 129.514C313.212 124.954 308.272 121.534 302.192 119.254C296.112 116.974 289.272 115.834 281.672 115.834C273.312 115.834 264.382 116.594 254.882 118.114C245.382 119.254 236.452 121.344 228.092 124.384C226.952 124.764 226.002 125.144 225.242 125.524C224.482 125.524 223.722 125.524 222.962 125.524C222.202 125.524 221.822 125.334 221.822 124.954C221.822 124.194 222.392 123.054 223.532 121.534C224.672 119.634 226.002 117.164 227.522 114.124C231.702 105.764 235.692 97.0236 239.492 87.9036C243.292 78.7836 246.712 70.4236 249.752 62.8236C253.172 55.2236 255.452 49.9036 256.592 46.8636C257.732 44.2036 259.252 40.4036 261.152 35.4636C263.052 30.1436 264.952 25.0136 266.852 20.0736C269.132 15.1336 270.462 11.9036 270.842 10.3836C272.362 6.5836 274.642 4.68359 277.682 4.68359H395.102C398.142 4.68359 398.712 6.7736 396.812 10.9536C395.292 15.1336 393.012 19.8836 389.972 25.2036C386.932 30.5236 384.462 35.0836 382.562 38.8836C382.562 38.8836 381.802 40.7836 380.282 44.5836C378.762 48.0036 377.052 52.1836 375.152 57.1236C373.252 61.6836 371.352 65.6736 369.452 69.0936L361.472 67.3836C364.892 62.0636 367.932 56.5536 370.592 50.8536C373.252 44.7736 374.582 41.7336 374.582 41.7336C376.482 38.6936 377.432 36.0336 377.432 33.7536C377.432 31.4736 376.102 29.5736 373.442 28.0536C370.782 26.1536 365.842 25.2036 358.622 25.2036C355.202 25.2036 348.932 25.2036 339.812 25.2036C331.072 25.2036 322.142 25.3936 313.022 25.7736C303.902 25.7736 297.252 25.9636 293.072 26.3436C285.852 27.1036 280.912 29.7636 278.252 34.3236C274.832 40.7836 270.462 49.3336 265.142 59.9736C260.202 70.6136 255.262 80.8736 250.322 90.7536C245.762 100.634 242.532 107.664 240.632 111.844C247.092 108.424 255.642 105.764 266.282 103.864C276.922 101.964 285.662 101.014 292.502 101.014C334.682 101.014 355.772 115.644 355.772 144.904C355.772 153.264 354.062 162.954 350.642 173.974C342.282 201.714 327.462 222.614 306.182 236.674C284.902 250.734 260.582 257.764 233.222 257.764Z" fill="#0166C9" fill-opacity="0.1"/>
<path d="M50.73 257.191C32.11 257.191 19 251.301 11.4 239.521C3.8 227.741 0 213.111 0 195.631C0 178.531 2.85 160.481 8.55 141.481C14.63 122.101 22.42 104.051 31.92 87.3314C41.42 70.2314 51.49 56.7414 62.13 46.8614C68.59 41.1614 75.43 35.4614 82.65 29.7614C90.25 23.6814 97.09 17.9814 103.17 12.6614C108.49 8.48141 115.33 5.44142 123.69 3.54142C132.05 1.64141 139.27 0.691406 145.35 0.691406C162.45 0.691406 174.61 6.96141 181.83 19.5014C189.43 31.6614 193.23 46.6714 193.23 64.5314C193.23 80.8714 190.57 98.3514 185.25 116.971C180.31 135.591 173.28 153.261 164.16 169.981C155.42 186.321 145.54 199.621 134.52 209.881C128.44 215.581 122.17 220.711 115.71 225.271C109.25 229.451 102.79 234.771 96.33 241.231C90.25 246.931 82.65 250.921 73.53 253.201C64.41 255.861 56.81 257.191 50.73 257.191ZM74.1 237.811C87.02 237.811 99.37 231.921 111.15 220.141C123.31 208.361 134.14 191.451 143.64 169.411C150.1 154.211 155.23 139.011 159.03 123.811C163.21 108.611 165.3 94.5514 165.3 81.6314C165.3 68.3314 163.02 56.7414 158.46 46.8614C153.9 36.9814 146.68 29.9514 136.8 25.7714C131.1 23.4914 125.4 22.3514 119.7 22.3514C105.64 22.3514 92.53 29.0014 80.37 42.3014C68.59 55.2214 58.52 71.7514 50.16 91.8914C43.7 106.711 38.57 121.721 34.77 136.921C30.97 151.741 29.07 165.801 29.07 179.101C29.07 191.641 30.97 202.661 34.77 212.161C38.95 221.661 45.6 228.691 54.72 233.251C60.42 236.291 66.88 237.811 74.1 237.811Z" fill="#0166C9" fill-opacity="0.1"/>
</svg>
