<svg width="325" height="263" viewBox="0 0 325 263" fill="none" xmlns="http://www.w3.org/2000/svg">
<path d="M227.522 254.79C227.522 254.79 222.772 255.17 213.272 255.93C204.152 256.31 186.672 257.45 160.832 259.35L165.962 251.94C167.102 252.32 169.572 252.51 173.372 252.51C179.832 252.51 187.622 251.18 196.742 248.52C206.242 245.48 213.082 240.35 217.262 233.13C219.162 229.71 221.442 224.2 224.102 216.6C227.142 208.62 230.182 200.07 233.222 190.95C236.642 181.83 239.682 173.28 242.342 165.3C245.002 156.94 247.092 150.29 248.612 145.35L267.992 85.5C273.312 68.02 275.972 56.62 275.972 51.3C275.972 48.26 275.402 46.36 274.262 45.6C273.502 44.46 272.362 43.51 270.842 42.75C268.942 41.61 265.522 42.56 260.582 45.6C255.642 48.64 250.512 52.25 245.192 56.43C241.392 59.09 237.782 61.94 234.362 64.98C230.942 68.02 228.282 69.92 226.382 70.68C227.522 66.5 228.282 63.65 228.662 62.13C229.422 60.23 230.182 57.95 230.942 55.29C236.262 51.87 242.532 48.07 249.752 43.89C257.352 39.71 265.712 34.77 274.832 29.07C279.392 26.03 286.042 21.85 294.782 16.53C303.522 10.83 311.122 6.07999 317.582 2.27999C319.482 0.759996 321.192 0 322.712 0C323.852 0 324.422 0.759996 324.422 2.27999C324.422 4.17999 323.852 6.26999 322.712 8.54999C315.492 22.61 308.842 38.19 302.762 55.29C296.682 72.39 289.842 93.29 282.242 117.99L273.692 145.92C270.652 155.42 267.232 166.06 263.432 177.84C260.012 189.24 256.972 200.07 254.312 210.33C251.652 220.21 249.942 227.81 249.182 233.13C248.422 239.21 250.702 243.77 256.022 246.81C261.342 249.47 267.232 251.18 273.692 251.94C280.532 252.32 285.092 252.51 287.372 252.51L281.102 259.35C279.202 258.59 275.022 258.02 268.562 257.64C262.102 256.88 255.072 256.31 247.472 255.93C239.872 255.17 233.222 254.79 227.522 254.79Z" fill="#0166C9" fill-opacity="0.1"/>
<path d="M50.73 262.77C32.11 262.77 19 256.88 11.4 245.1C3.8 233.32 0 218.69 0 201.21C0 184.11 2.85 166.06 8.55 147.06C14.63 127.68 22.42 109.63 31.92 92.9095C41.42 75.8095 51.49 62.3195 62.13 52.4395C68.59 46.7395 75.43 41.0395 82.65 35.3395C90.25 29.2595 97.09 23.5595 103.17 18.2395C108.49 14.0595 115.33 11.0195 123.69 9.11954C132.05 7.21954 139.27 6.26953 145.35 6.26953C162.45 6.26953 174.61 12.5395 181.83 25.0795C189.43 37.2395 193.23 52.2495 193.23 70.1095C193.23 86.4495 190.57 103.93 185.25 122.55C180.31 141.17 173.28 158.84 164.16 175.56C155.42 191.9 145.54 205.2 134.52 215.46C128.44 221.16 122.17 226.29 115.71 230.85C109.25 235.03 102.79 240.35 96.33 246.81C90.25 252.51 82.65 256.5 73.53 258.78C64.41 261.44 56.81 262.77 50.73 262.77ZM74.1 243.39C87.02 243.39 99.37 237.5 111.15 225.72C123.31 213.94 134.14 197.03 143.64 174.99C150.1 159.79 155.23 144.59 159.03 129.39C163.21 114.19 165.3 100.13 165.3 87.2095C165.3 73.9095 163.02 62.3195 158.46 52.4395C153.9 42.5595 146.68 35.5295 136.8 31.3495C131.1 29.0695 125.4 27.9295 119.7 27.9295C105.64 27.9295 92.53 34.5795 80.37 47.8795C68.59 60.7995 58.52 77.3295 50.16 97.4695C43.7 112.29 38.57 127.3 34.77 142.5C30.97 157.32 29.07 171.38 29.07 184.68C29.07 197.22 30.97 208.24 34.77 217.74C38.95 227.24 45.6 234.27 54.72 238.83C60.42 241.87 66.88 243.39 74.1 243.39Z" fill="#0166C9" fill-opacity="0.1"/>
</svg>
