<svg width="365" height="258" viewBox="0 0 365 258" fill="none" xmlns="http://www.w3.org/2000/svg">
<path d="M145.441 255.563C154.181 247.963 166.721 236.943 183.061 222.503C199.401 207.683 217.261 190.963 236.641 172.343C243.861 165.503 252.411 157.523 262.291 148.403C272.171 138.903 282.051 128.833 291.931 118.193C301.811 107.553 310.551 97.1032 318.151 86.8432C326.131 76.2032 331.451 66.3232 334.111 57.2032C335.631 53.0232 336.391 48.6532 336.391 44.0932C336.391 35.3532 332.971 28.1332 326.131 22.4332C319.671 16.3532 310.171 13.3132 297.631 13.3132C291.551 13.3132 285.091 14.0732 278.251 15.5932C271.411 17.1132 265.521 19.3932 260.581 22.4332C256.781 25.0932 252.601 29.4632 248.041 35.5432C243.861 41.2432 241.011 46.7532 239.491 52.0732C238.731 54.7332 237.591 58.9132 236.071 64.6132C234.931 70.3132 234.551 73.7332 234.931 74.8732L222.961 81.1432C224.481 76.5832 226.191 70.1232 228.091 61.7632C229.991 53.0232 231.701 44.6632 233.221 36.6832C235.121 28.7032 236.071 23.5732 236.071 21.2932C236.071 18.2532 237.211 15.7832 239.491 13.8832C242.151 11.9832 244.431 10.6532 246.331 9.89316C250.131 8.37317 256.401 7.04317 265.141 5.90316C274.261 4.38317 282.431 3.43317 289.651 3.05316L302.191 2.48317C320.051 1.72317 333.921 3.62317 343.801 8.18317C351.401 11.6032 356.721 16.3532 359.761 22.4332C363.181 28.1332 364.891 34.7832 364.891 42.3832C364.891 49.6032 363.751 56.6332 361.471 63.4732C359.191 71.0732 355.581 78.2932 350.641 85.1332C346.081 91.9732 340.951 98.6232 335.251 105.083C324.231 116.863 310.171 129.783 293.071 143.843C276.351 157.523 259.251 171.013 241.771 184.313C224.671 197.613 209.661 209.203 196.741 219.083C189.901 224.403 186.481 228.013 186.481 229.913C186.481 230.673 187.051 231.243 188.191 231.623C189.711 231.623 191.231 231.813 192.751 232.193C198.451 232.573 204.721 232.953 211.561 233.333C218.401 233.713 225.431 233.903 232.651 233.903C244.431 233.903 255.641 233.333 266.281 232.193C277.301 230.673 285.471 228.393 290.791 225.353C294.591 223.073 298.771 219.653 303.331 215.093C308.271 210.533 312.831 205.783 317.011 200.843C321.191 195.523 323.851 191.533 324.991 188.873L330.121 190.583C329.741 191.343 328.031 194.003 324.991 198.563C321.951 202.743 318.721 207.683 315.301 213.383C312.261 219.083 309.601 224.213 307.321 228.773C303.901 235.993 299.911 241.883 295.351 246.443C290.791 250.623 284.331 252.713 275.971 252.713C269.891 252.713 261.721 252.523 251.461 252.143C241.581 251.383 232.271 251.003 223.531 251.003C220.111 251.003 216.881 251.003 213.841 251.003C210.801 251.003 208.141 251.193 205.861 251.573C205.861 251.573 200.921 251.953 191.041 252.713C181.161 253.093 165.961 254.043 145.441 255.563Z" fill="#0166C9" fill-opacity="0.1"/>
<path d="M50.73 257.27C32.11 257.27 19 251.38 11.4 239.6C3.8 227.82 0 213.19 0 195.71C0 178.61 2.85 160.56 8.55 141.56C14.63 122.18 22.42 104.13 31.92 87.4095C41.42 70.3095 51.49 56.8195 62.13 46.9395C68.59 41.2395 75.43 35.5395 82.65 29.8395C90.25 23.7595 97.09 18.0595 103.17 12.7395C108.49 8.55954 115.33 5.51954 123.69 3.61954C132.05 1.71954 139.27 0.769531 145.35 0.769531C162.45 0.769531 174.61 7.03954 181.83 19.5795C189.43 31.7395 193.23 46.7495 193.23 64.6095C193.23 80.9495 190.57 98.4295 185.25 117.05C180.31 135.67 173.28 153.34 164.16 170.06C155.42 186.4 145.54 199.7 134.52 209.96C128.44 215.66 122.17 220.79 115.71 225.35C109.25 229.53 102.79 234.85 96.33 241.31C90.25 247.01 82.65 251 73.53 253.28C64.41 255.94 56.81 257.27 50.73 257.27ZM74.1 237.89C87.02 237.89 99.37 232 111.15 220.22C123.31 208.44 134.14 191.53 143.64 169.49C150.1 154.29 155.23 139.09 159.03 123.89C163.21 108.69 165.3 94.6295 165.3 81.7095C165.3 68.4095 163.02 56.8195 158.46 46.9395C153.9 37.0595 146.68 30.0295 136.8 25.8495C131.1 23.5695 125.4 22.4295 119.7 22.4295C105.64 22.4295 92.53 29.0795 80.37 42.3795C68.59 55.2995 58.52 71.8295 50.16 91.9695C43.7 106.79 38.57 121.8 34.77 137C30.97 151.82 29.07 165.88 29.07 179.18C29.07 191.72 30.97 202.74 34.77 212.24C38.95 221.74 45.6 228.77 54.72 233.33C60.42 236.37 66.88 237.89 74.1 237.89Z" fill="#0166C9" fill-opacity="0.1"/>
</svg>
