<svg width="377" height="258" viewBox="0 0 377 258" fill="none" xmlns="http://www.w3.org/2000/svg">
<path d="M233.222 257.343C224.482 257.343 214.792 256.583 204.152 255.063C193.892 253.923 186.102 251.833 180.782 248.793C179.262 248.033 177.742 246.703 176.222 244.803C174.702 242.523 174.702 240.053 176.222 237.393C177.362 235.113 178.882 231.123 180.782 225.423C182.682 219.723 184.582 213.643 186.482 207.183C188.382 200.723 189.902 195.403 191.042 191.223L203.582 186.093C202.822 187.233 201.492 190.463 199.592 195.783C198.072 201.103 196.932 205.283 196.172 208.323C195.792 209.463 195.602 210.603 195.602 211.743C195.602 212.883 195.602 214.023 195.602 215.163C195.602 225.803 198.072 233.213 203.012 237.393C206.052 240.433 210.422 242.713 216.122 244.233C221.822 245.753 227.712 246.513 233.792 246.513C250.132 246.513 264.002 243.093 275.402 236.253C287.182 229.033 296.682 220.103 303.902 209.463C311.502 198.823 317.012 187.803 320.432 176.403C322.712 168.803 323.852 162.343 323.852 157.023C323.852 145.623 319.862 137.453 311.882 132.513C304.282 127.193 294.782 123.963 283.382 122.823C271.982 121.303 260.392 120.543 248.612 120.543C250.512 118.263 252.222 116.173 253.742 114.273C255.262 112.373 256.022 111.423 256.022 111.423C258.682 110.663 260.582 110.283 261.722 110.283C262.862 110.283 264.382 110.093 266.282 109.713C274.642 107.813 284.332 105.153 295.352 101.733C306.752 97.9332 317.202 92.6132 326.702 85.7732C336.582 78.5532 343.422 68.8632 347.222 56.7032C348.742 52.5232 349.502 48.1532 349.502 43.5932C349.502 34.8532 346.082 27.6332 339.242 21.9332C332.782 15.8532 323.282 12.8132 310.742 12.8132C304.662 12.8132 298.202 13.5732 291.362 15.0932C284.522 16.6132 278.822 18.8932 274.262 21.9332C270.082 24.5932 265.712 28.9632 261.152 35.0432C256.972 40.7432 254.122 46.2532 252.602 51.5732C251.842 54.2332 250.702 58.4132 249.182 64.1132C248.042 69.8132 247.662 73.2332 248.042 74.3732L236.072 80.6432C237.592 76.0832 239.302 69.6232 241.202 61.2632C243.102 52.5232 244.812 44.1632 246.332 36.1832C248.232 28.2032 249.182 23.0732 249.182 20.7932C249.182 17.7532 250.322 15.2832 252.602 13.3832C255.262 11.4832 257.542 10.1532 259.442 9.39316C263.242 7.87317 269.512 6.54317 278.252 5.40316C287.372 3.88317 295.542 2.93317 302.762 2.55316L315.302 1.98317C333.162 1.22317 347.032 3.12317 356.912 7.68317C364.132 11.1032 369.262 15.6632 372.302 21.3632C375.342 26.6832 376.862 32.3832 376.862 38.4632C376.862 41.1232 376.672 43.5932 376.292 45.8732C375.912 48.1532 375.342 50.4332 374.582 52.7132C370.782 65.2532 362.992 76.4632 351.212 86.3432C339.812 95.8432 325.562 103.443 308.462 109.143C303.142 110.663 300.482 111.993 300.482 113.133C300.482 113.893 301.622 114.463 303.902 114.843C306.182 115.223 308.462 115.603 310.742 115.983C319.482 116.743 327.272 118.833 334.112 122.253C341.332 125.673 346.462 131.183 349.502 138.783C351.022 142.203 351.782 146.573 351.782 151.893C351.782 159.113 350.262 167.093 347.222 175.833C344.562 184.573 341.332 192.743 337.532 200.343C333.732 207.563 330.122 213.263 326.702 217.443C317.202 229.223 305.042 238.913 290.222 246.513C275.402 253.733 256.402 257.343 233.222 257.343Z" fill="#0166C9" fill-opacity="0.1"/>
<path d="M50.73 256.77C32.11 256.77 19 250.88 11.4 239.1C3.8 227.32 0 212.69 0 195.21C0 178.11 2.85 160.06 8.55 141.06C14.63 121.68 22.42 103.63 31.92 86.9095C41.42 69.8095 51.49 56.3195 62.13 46.4395C68.59 40.7395 75.43 35.0395 82.65 29.3395C90.25 23.2595 97.09 17.5595 103.17 12.2395C108.49 8.05954 115.33 5.01954 123.69 3.11954C132.05 1.21954 139.27 0.269531 145.35 0.269531C162.45 0.269531 174.61 6.53954 181.83 19.0795C189.43 31.2395 193.23 46.2495 193.23 64.1095C193.23 80.4495 190.57 97.9295 185.25 116.55C180.31 135.17 173.28 152.84 164.16 169.56C155.42 185.9 145.54 199.2 134.52 209.46C128.44 215.16 122.17 220.29 115.71 224.85C109.25 229.03 102.79 234.35 96.33 240.81C90.25 246.51 82.65 250.5 73.53 252.78C64.41 255.44 56.81 256.77 50.73 256.77ZM74.1 237.39C87.02 237.39 99.37 231.5 111.15 219.72C123.31 207.94 134.14 191.03 143.64 168.99C150.1 153.79 155.23 138.59 159.03 123.39C163.21 108.19 165.3 94.1295 165.3 81.2095C165.3 67.9095 163.02 56.3195 158.46 46.4395C153.9 36.5595 146.68 29.5295 136.8 25.3495C131.1 23.0695 125.4 21.9295 119.7 21.9295C105.64 21.9295 92.53 28.5795 80.37 41.8795C68.59 54.7995 58.52 71.3295 50.16 91.4695C43.7 106.29 38.57 121.3 34.77 136.5C30.97 151.32 29.07 165.38 29.07 178.68C29.07 191.22 30.97 202.24 34.77 211.74C38.95 221.24 45.6 228.27 54.72 232.83C60.42 235.87 66.88 237.39 74.1 237.39Z" fill="#0166C9" fill-opacity="0.1"/>
</svg>
