<svg width="381" height="260" viewBox="0 0 381 260" fill="none" xmlns="http://www.w3.org/2000/svg">
<path d="M268.561 251.714C268.561 251.714 264.001 252.094 254.881 252.854C245.761 253.234 228.281 254.374 202.441 256.274L207.571 248.864C208.711 249.244 210.991 249.434 214.411 249.434C220.871 249.434 228.661 248.104 237.781 245.444C247.281 242.404 254.121 237.274 258.301 230.054C260.581 225.874 263.431 219.224 266.851 210.104C270.271 200.984 273.691 191.484 277.111 181.604H244.621C244.621 181.604 237.021 181.984 221.821 182.744C206.621 183.124 188.761 183.884 168.241 185.024H164.251C161.211 185.024 159.691 184.644 159.691 183.884C159.691 182.744 161.781 180.844 165.961 178.184C172.421 174.004 180.211 166.974 189.331 157.094C198.451 147.214 207.001 138.094 214.981 129.734L281.671 59.6237C292.691 47.8438 301.241 37.9638 307.321 29.9838C313.781 22.0038 319.101 17.2538 323.281 15.7338C329.741 13.8338 336.961 10.7938 344.941 6.61375C353.301 2.43375 359.191 0.34375 362.611 0.34375C365.651 0.34375 366.221 2.05375 364.321 5.47375C357.101 19.5338 350.451 35.1138 344.371 52.2138C338.291 69.3138 331.261 90.2138 323.281 114.914L314.731 142.844C312.831 148.924 310.741 155.194 308.461 161.654C314.921 160.894 320.621 160.134 325.561 159.374C330.881 158.234 334.871 156.904 337.531 155.384C341.711 153.104 346.461 149.684 351.781 145.124C357.101 140.564 361.851 135.814 366.031 130.874C370.591 125.934 373.441 122.134 374.581 119.474L380.281 121.184C379.901 121.944 378.001 124.604 374.581 129.164C371.541 133.344 368.311 138.284 364.891 143.984C361.471 149.304 358.621 154.244 356.341 158.804C352.541 166.024 348.171 171.914 343.231 176.474C338.671 180.654 332.211 182.744 323.851 182.744C320.811 182.744 317.391 182.744 313.591 182.744C310.171 182.364 306.561 182.174 302.761 182.174C300.101 192.054 297.441 201.364 294.781 210.104C292.501 218.844 290.981 225.494 290.221 230.054C289.461 236.134 291.741 240.694 297.061 243.734C302.381 246.394 308.271 248.104 314.731 248.864C321.571 249.244 326.321 249.434 328.981 249.434L322.141 256.274C320.241 255.514 316.061 254.944 309.601 254.564C303.141 253.804 296.111 253.234 288.511 252.854C280.911 252.094 274.261 251.714 268.561 251.714ZM259.441 163.934C263.621 163.934 267.611 163.934 271.411 163.934C275.211 163.934 279.011 163.744 282.811 163.364C284.331 159.184 285.661 155.384 286.801 151.964C288.321 148.164 289.271 144.934 289.651 142.274L309.031 82.4238C312.071 74.0638 314.351 66.4638 315.871 59.6237C317.771 52.4038 318.721 46.8938 318.721 43.0938C318.721 40.0538 318.151 37.9638 317.011 36.8238C313.971 38.7238 308.841 43.2838 301.621 50.5038C294.781 57.3438 286.801 65.5138 277.681 75.0138C268.561 84.5138 259.251 94.3938 249.751 104.654C240.631 114.534 232.081 123.844 224.101 132.584C216.501 140.944 210.611 147.404 206.431 151.964C203.771 154.624 202.441 156.904 202.441 158.804C202.441 160.324 204.721 161.464 209.281 162.224C215.741 162.604 223.341 162.984 232.081 163.364C240.821 163.744 249.941 163.934 259.441 163.934Z" fill="#0166C9" fill-opacity="0.1"/>
<path d="M50.73 259.691C32.11 259.691 19 253.801 11.4 242.021C3.8 230.241 0 215.611 0 198.131C0 181.031 2.85 162.981 8.55 143.981C14.63 124.601 22.42 106.551 31.92 89.8314C41.42 72.7314 51.49 59.2414 62.13 49.3614C68.59 43.6614 75.43 37.9614 82.65 32.2614C90.25 26.1814 97.09 20.4814 103.17 15.1614C108.49 10.9814 115.33 7.94142 123.69 6.04142C132.05 4.14141 139.27 3.19141 145.35 3.19141C162.45 3.19141 174.61 9.46141 181.83 22.0014C189.43 34.1614 193.23 49.1714 193.23 67.0314C193.23 83.3714 190.57 100.851 185.25 119.471C180.31 138.091 173.28 155.761 164.16 172.481C155.42 188.821 145.54 202.121 134.52 212.381C128.44 218.081 122.17 223.211 115.71 227.771C109.25 231.951 102.79 237.271 96.33 243.731C90.25 249.431 82.65 253.421 73.53 255.701C64.41 258.361 56.81 259.691 50.73 259.691ZM74.1 240.311C87.02 240.311 99.37 234.421 111.15 222.641C123.31 210.861 134.14 193.951 143.64 171.911C150.1 156.711 155.23 141.511 159.03 126.311C163.21 111.111 165.3 97.0514 165.3 84.1314C165.3 70.8314 163.02 59.2414 158.46 49.3614C153.9 39.4814 146.68 32.4514 136.8 28.2714C131.1 25.9914 125.4 24.8514 119.7 24.8514C105.64 24.8514 92.53 31.5014 80.37 44.8014C68.59 57.7214 58.52 74.2514 50.16 94.3914C43.7 109.211 38.57 124.221 34.77 139.421C30.97 154.241 29.07 168.301 29.07 181.601C29.07 194.141 30.97 205.161 34.77 214.661C38.95 224.161 45.6 231.191 54.72 235.751C60.42 238.791 66.88 240.311 74.1 240.311Z" fill="#0166C9" fill-opacity="0.1"/>
</svg>
