<svg width="1525" height="174" viewBox="0 0 1525 174" fill="none" xmlns="http://www.w3.org/2000/svg">
<path d="M1469.54 134.691V41.741H1485.43L1486.95 58.472H1487.45C1494.05 46.473 1503.85 39.375 1513.82 39.375C1518.38 39.375 1521.42 40.051 1524.3 41.403L1520.75 58.303C1517.54 57.289 1515.17 56.782 1511.45 56.782C1503.85 56.782 1494.72 62.021 1488.98 76.724V134.691H1469.54Z" fill="white" fill-opacity="0.1"/>
<path d="M1404.24 136.888C1379.05 136.888 1358.94 118.974 1358.94 88.216C1358.94 58.134 1379.73 39.375 1401.36 39.375C1426.04 39.375 1439.39 57.12 1439.39 83.315C1439.39 87.202 1438.88 90.92 1438.37 93.286H1378.04C1379.56 111.031 1390.72 121.678 1406.77 121.678C1415.05 121.678 1422.15 119.143 1428.91 114.749L1435.67 127.086C1427.05 132.832 1416.4 136.888 1404.24 136.888ZM1377.87 79.766H1422.49C1422.49 63.88 1415.22 54.585 1401.7 54.585C1390.04 54.585 1379.73 63.542 1377.87 79.766Z" fill="white" fill-opacity="0.1"/>
<path d="M1282.74 136.89C1259.42 136.89 1244.38 119.145 1244.38 88.218C1244.38 58.136 1263.48 39.377 1284.26 39.377C1294.91 39.377 1301.67 43.433 1309.28 49.855L1308.43 34.476V0H1327.87V134.693H1311.98L1310.46 124.215H1309.78C1302.85 131.313 1293.22 136.89 1282.74 136.89ZM1287.31 120.835C1295.08 120.835 1301.67 117.286 1308.43 109.512V64.051C1301.5 57.798 1294.91 55.601 1287.98 55.601C1274.97 55.601 1264.49 67.938 1264.49 88.049C1264.49 109.174 1272.77 120.835 1287.31 120.835Z" fill="white" fill-opacity="0.1"/>
<path d="M1193.66 134.69V41.7397H1213.1V134.69H1193.66ZM1203.3 24.3327C1196.2 24.3327 1191.3 19.7697 1191.3 12.6717C1191.3 5.74269 1196.2 1.17969 1203.3 1.17969C1210.39 1.17969 1215.46 5.74269 1215.46 12.6717C1215.46 19.7697 1210.39 24.3327 1203.3 24.3327Z" fill="white" fill-opacity="0.1"/>
<path d="M1113.57 134.692L1080.62 41.7422H1100.56L1116.44 91.7662C1119.15 100.892 1121.85 110.356 1124.56 119.482H1125.23C1127.94 110.356 1130.81 100.892 1133.34 91.7662L1149.23 41.7422H1168.16L1136.05 134.692H1113.57Z" fill="white" fill-opacity="0.1"/>
<path d="M1019.03 136.888C996.047 136.888 975.26 119.143 975.26 88.216C975.26 57.289 996.047 39.375 1019.03 39.375C1042.01 39.375 1062.8 57.289 1062.8 88.216C1062.8 119.143 1042.01 136.888 1019.03 136.888ZM1019.03 121.002C1033.73 121.002 1042.86 107.989 1042.86 88.216C1042.86 68.612 1033.73 55.43 1019.03 55.43C1004.5 55.43 995.371 68.612 995.371 88.216C995.371 107.989 1004.5 121.002 1019.03 121.002Z" fill="white" fill-opacity="0.1"/>
<path d="M906.064 134.691V41.741H921.95L923.471 58.472H923.978C930.569 46.473 940.371 39.375 950.342 39.375C954.905 39.375 957.947 40.051 960.82 41.403L957.271 58.303C954.06 57.289 951.694 56.782 947.976 56.782C940.371 56.782 931.245 62.021 925.499 76.724V134.691H906.064Z" fill="white" fill-opacity="0.1"/>
<path d="M789.885 134.69V10.1367H827.572C855.288 10.1367 875.061 19.7697 875.061 47.8237C875.061 75.0327 855.288 87.5387 828.248 87.5387H809.489V134.69H789.885ZM809.489 71.8217H826.389C846.331 71.8217 855.795 64.2167 855.795 47.8237C855.795 31.4307 845.486 26.0227 825.713 26.0227H809.489V71.8217Z" fill="white" fill-opacity="0.1"/>
<path d="M645.633 173.562C640.901 173.562 637.183 172.886 633.972 171.703L637.69 156.493C639.38 157 642.084 157.845 644.45 157.845C654.59 157.845 660.505 150.409 663.885 140.438L665.744 134.016L628.902 41.7422H648.844L666.082 89.5692C668.786 97.8502 671.659 107.145 674.532 115.764H675.377C677.743 107.314 680.278 98.0192 682.644 89.5692L697.516 41.7422H716.444L682.306 140.269C675.039 160.211 665.237 173.562 645.633 173.562Z" fill="white" fill-opacity="0.1"/>
<path d="M597.218 136.89C576.262 136.89 568.995 123.877 568.995 104.273V57.2907H555.475V42.7567L570.009 41.7427L572.206 16.0547H588.43V41.7427H612.597V57.2907H588.43V104.442C588.43 115.596 592.317 121.342 601.95 121.342C605.161 121.342 609.217 120.328 611.921 119.145L615.47 133.51C610.231 135.2 603.978 136.89 597.218 136.89Z" fill="white" fill-opacity="0.1"/>
<path d="M508.981 134.69V41.7397H528.416V134.69H508.981ZM518.614 24.3327C511.516 24.3327 506.615 19.7697 506.615 12.6717C506.615 5.74269 511.516 1.17969 518.614 1.17969C525.712 1.17969 530.782 5.74269 530.782 12.6717C530.782 19.7697 525.712 24.3327 518.614 24.3327Z" fill="white" fill-opacity="0.1"/>
<path d="M431.381 134.691V41.741H447.267L448.788 58.472H449.295C455.886 46.473 465.688 39.375 475.659 39.375C480.222 39.375 483.264 40.051 486.137 41.403L482.588 58.303C479.377 57.289 477.011 56.782 473.293 56.782C465.688 56.782 456.562 62.021 450.816 76.724V134.691H431.381Z" fill="white" fill-opacity="0.1"/>
<path d="M345.508 136.889C325.566 136.889 316.947 123.876 316.947 100.216V41.7422H336.382V97.8502C336.382 113.736 340.945 120.158 351.93 120.158C360.549 120.158 366.464 116.102 374.238 106.3V41.7422H393.673V134.692H377.787L376.266 120.665H375.759C367.309 130.467 358.183 136.889 345.508 136.889Z" fill="white" fill-opacity="0.1"/>
<path d="M260.23 136.888C235.049 136.888 215.783 119.143 215.783 88.216C215.783 57.289 237.246 39.375 261.751 39.375C273.581 39.375 282.2 44.107 288.96 50.022L279.327 62.697C274.257 58.134 269.018 55.43 262.765 55.43C247.048 55.43 235.894 68.612 235.894 88.216C235.894 107.989 246.71 121.002 262.089 121.002C269.863 121.002 276.792 117.284 282.369 112.552L290.481 125.396C281.862 133.001 270.877 136.888 260.23 136.888Z" fill="white" fill-opacity="0.1"/>
<path d="M157.067 136.888C131.886 136.888 111.775 118.974 111.775 88.216C111.775 58.134 132.562 39.375 154.194 39.375C178.868 39.375 192.219 57.12 192.219 83.315C192.219 87.202 191.712 90.92 191.205 93.286H130.872C132.393 111.031 143.547 121.678 159.602 121.678C167.883 121.678 174.981 119.143 181.741 114.749L188.501 127.086C179.882 132.832 169.235 136.888 157.067 136.888ZM130.703 79.766H175.319C175.319 63.88 168.052 54.585 154.532 54.585C142.871 54.585 132.562 63.542 130.703 79.766Z" fill="white" fill-opacity="0.1"/>
<path d="M44.278 136.888C27.209 136.888 11.323 130.128 0 118.636L11.492 105.116C20.449 114.073 32.617 119.819 44.616 119.819C59.657 119.819 68.107 112.721 68.107 102.243C68.107 90.9204 59.657 87.3714 48.165 82.3014L30.927 74.8654C18.928 69.7954 5.577 60.3314 5.577 42.2484C5.577 22.6444 22.815 7.94141 46.475 7.94141C61.009 7.94141 74.698 14.0254 84.162 23.6584L73.853 36.1644C66.079 29.2354 57.46 25.0104 46.475 25.0104C33.8 25.0104 25.519 31.0944 25.519 40.8964C25.519 51.7124 35.49 55.7684 45.63 59.8244L62.699 67.0914C77.402 73.3444 88.049 82.4704 88.049 100.722C88.049 120.664 71.487 136.888 44.278 136.888Z" fill="white" fill-opacity="0.1"/>
</svg>
